<?xml version="1.0" encoding="UTF-8" standalone="no"?>
<!-- Created with Inkscape (http://www.inkscape.org/) -->

<svg
   width="210mm"
   height="297mm"
   viewBox="0 0 210 297"
   version="1.1"
   id="svg1"
   inkscape:version="1.3.2 (091e20e, 2023-11-25, custom)"
   sodipodi:docname="zīmējums.svg"
   xmlns:inkscape="http://www.inkscape.org/namespaces/inkscape"
   xmlns:sodipodi="http://sodipodi.sourceforge.net/DTD/sodipodi-0.dtd"
   xmlns:xlink="http://www.w3.org/1999/xlink"
   xmlns="http://www.w3.org/2000/svg"
   xmlns:svg="http://www.w3.org/2000/svg">
  <sodipodi:namedview
     id="namedview1"
     pagecolor="#ffffff"
     bordercolor="#000000"
     borderopacity="0.25"
     inkscape:showpageshadow="2"
     inkscape:pageopacity="0.0"
     inkscape:pagecheckerboard="0"
     inkscape:deskcolor="#d1d1d1"
     inkscape:document-units="mm"
     inkscape:zoom="1.0343421"
     inkscape:cx="365.9331"
     inkscape:cy="420.0738"
     inkscape:window-width="1920"
     inkscape:window-height="1017"
     inkscape:window-x="-8"
     inkscape:window-y="-8"
     inkscape:window-maximized="1"
     inkscape:current-layer="layer1" />
  <defs
     id="defs1">
    <pattern
       inkscape:collect="always"
       xlink:href="#WireFence"
       preserveAspectRatio="xMidYMid"
       id="pattern47"
       patternTransform="matrix(0.05,0,0,0.05,37.986103,-8.0576583)"
       x="0"
       y="0" />
    <pattern
       patternUnits="userSpaceOnUse"
       width="52"
       height="61.14"
       id="WireFence"
       patternTransform="scale(0.3,0.3)"
       preserveAspectRatio="xMidYMid"
       style="fill:#000000"
       inkscape:label="Wire Fence"
       inkscape:collect="always"
       inkscape:isstock="true">
      <path
         id="rect9"
         style="stroke:none"
         d="m 31.437499,0 7.257813,7.2578126 c -0.879538,1.3312883 -0.879117,3.0161644 10e-7,4.3476564 L 26.072266,24.228516 14,36.300782 0,22.302735 v 2.828124 l 12.640625,12.640625 c -0.89873,1.34129 -0.898729,3.115742 0,4.457031 L 0,54.86914 v 2.828126 l 14,-14 17.443359,17.443359 2.828125,10e-7 -18.912109,-18.91211 c 0.898055,-1.340861 0.898042,-3.116186 0,-4.457031 L 27.488281,25.642578 40,13.128906 l 12.000001,12 L 52,22.300781 41.302734,11.605469 c 0.879644,-1.331587 0.879713,-3.0161029 0,-4.3476564 L 48.560547,0 H 45.732422 L 40,5.732422 34.267578,0 Z M 52,54.869141 l -6.271484,6.271484 2.828124,0 L 52,57.697265 Z" />
    </pattern>
  </defs>
  <g
     inkscape:label="Slānis 1"
     inkscape:groupmode="layer"
     id="layer1">
    <g
       id="g37"
       transform="translate(7.6739603,58.833695)">
      <path
         id="path1"
         style="fill:#803300;stroke-width:0.264583"
         transform="scale(1,-1)"
         d="m 90.147986,-129.05982 -77.688798,-0.1633 32.896183,-47.31287 h -6.647656 l 21.254,-37.26336 c 0.03773,-0.0217 0.07537,-0.0574 0.10852,-0.11369 0.05963,-0.10121 0.133671,-0.19292 0.198954,-0.29042 0.06525,-0.0891 0.115882,-0.18612 0.165882,-0.28422 0.04765,-0.0773 0.09046,-0.15715 0.130224,-0.23875 0.04245,-0.0834 0.07806,-0.17051 0.115239,-0.25631 0.04331,-0.0987 0.08455,-0.19822 0.12609,-0.29766 l 0.217558,-0.38189 c 0.0097,0.001 0.01921,0.002 0.02894,0.002 0.169544,0 0.337029,-0.16763 0.332279,-0.50333 -6.32e-4,-0.0445 3.6e-5,-0.0889 10e-4,-0.13332 l 0.387573,-0.67955 c 0.07349,-0.11418 0.147796,-0.22772 0.218591,-0.34365 0.0799,-0.12376 0.147484,-0.2552 0.211874,-0.38757 0.01774,-0.036 0.03282,-0.073 0.04909,-0.10956 l 2.87321,-5.03741 c 0.143655,-0.20125 0.288433,-0.40148 0.436666,-0.59945 0.154937,-0.20943 0.322914,-0.40905 0.483691,-0.61392 0.106673,-0.13881 0.224069,-0.26847 0.340031,-0.39946 0.0859,-0.09 0.167923,-0.18471 0.259933,-0.26871 0.09543,-0.0829 0.189086,-0.16763 0.281636,-0.25373 0.116913,-0.10356 0.232074,-0.20896 0.349333,-0.31213 0.0273,-0.0246 0.05581,-0.0472 0.08372,-0.0708 h 11.403955 c 0.200827,0.0108 0.401928,0.0146 0.603064,0.0171 0.163099,0.001 0.326272,0.003 0.489376,0.004 0.163101,6.9e-4 0.326299,3e-4 0.489375,-0.003 0.09851,-0.004 0.196806,-0.0104 0.295073,-0.0176 h 8.29045 c 0.0059,5.8e-4 0.01171,0.002 0.01757,0.002 0.137195,0.0145 0.274914,0.022 0.412895,0.015 0.151638,-0.003 0.303072,-0.008 0.454752,-0.008 0.137124,-0.001 0.274284,-6.8e-4 0.411345,-0.006 0.02462,-8.8e-4 0.04927,-0.002 0.0739,-0.003 h 0.540019 c 0.03339,0.004 0.06663,0.008 0.09922,0.017 0.07163,0.0189 0.143771,0.0356 0.217041,0.047 0.03808,0.006 0.07647,0.0103 0.114722,0.0124 0.03825,0.002 0.07671,0.002 0.115239,-5.2e-4 0.05721,-0.002 0.11423,-0.006 0.171048,-0.0129 0.06028,-0.008 0.120548,-0.0168 0.180868,-0.0248 0.07546,-0.0108 0.1508,-0.0198 0.22686,-0.0258 0.0432,-0.005 0.08701,-0.009 0.130224,-0.0124 h 0.0052 20.401345 l 28.57861,48.83681 h -7.92974 l 32.86311,47.26533 -75.892016,0.15917 z m -0.920357,-2.11098 0.312642,-0.71676 a 40.335567,40.335567 0 0 1 -0.61805,0.015 z" />
      <path
         id="rect4"
         style="fill:#ff9955;fill-opacity:1;stroke-width:0.365235"
         transform="rotate(24.196088)"
         d="m 142.42011,63.911147 1.7e-4,106.561863 c 0.0156,0.008 0.0309,0.0154 0.0472,0.0269 0.0959,0.0679 0.201,0.12119 0.30051,0.18337 0.096,0.0545 0.18198,0.12227 0.2678,0.19126 0.0752,0.051 0.14692,0.10626 0.21664,0.1644 0.0729,0.0587 0.14108,0.12354 0.21016,0.18656 0.1217,0.10996 0.24044,0.22316 0.36063,0.33481 0.0631,0.059 0.13034,0.11314 0.19682,0.1682 0.0185,-0.0153 0.0387,-0.0281 0.0601,-0.0378 0.15465,-0.0695 0.37612,0.0148 0.50938,0.32293 0.0264,0.0611 0.0541,0.12156 0.0846,0.18067 0.0605,0.0385 0.12144,0.0762 0.18216,0.11417 0.12429,0.0859 0.24848,0.17174 0.37359,0.25647 0.12942,0.0847 0.25989,0.16736 0.38753,0.25473 0.1236,0.0801 0.23912,0.17234 0.35211,0.26669 0.12479,0.10308 0.23952,0.21697 0.35431,0.33085 0.13673,0.12618 0.27446,0.251 0.42063,0.3662 0.17305,0.13511 0.34379,0.27286 0.5155,0.40968 0.17911,0.13873 0.35126,0.28636 0.52964,0.426 0.22127,0.18153 0.44889,0.35482 0.67718,0.52739 0.19198,0.15152 0.39387,0.28699 0.60476,0.41037 0.30561,0.18686 0.60605,0.38184 0.91063,0.57036 0.22465,0.13933 0.45243,0.27378 0.67953,0.40907 0.24064,0.14144 0.48275,0.27972 0.72693,0.41496 0.22716,0.12753 0.46219,0.24076 0.69282,0.36173 0.15419,0.0829 0.31441,0.15305 0.47388,0.225 0.11526,0.0469 0.22888,0.0997 0.34723,0.13858 0.12105,0.0366 0.24118,0.0754 0.36089,0.11601 0.14909,0.0465 0.29733,0.0955 0.44657,0.14152 0.0946,0.0303 0.19006,0.0546 0.28674,0.0746 l -4.6e-4,-114.097222 z m 0.41688,110.740913 c 3.5e-4,8.1e-4 6.5e-4,0.002 8e-4,0.003 0.004,0.002 0.008,0.005 0.011,0.007 -0.004,-0.003 -0.008,-0.007 -0.0118,-0.01 z m 3.26225,-1.00582 c -0.002,0.004 -0.003,0.009 -0.006,0.0122 0.0195,0.0113 0.0392,0.0223 0.0588,0.0336 -0.0172,-0.0158 -0.0358,-0.03 -0.0529,-0.0459 z m -3.67856,3.78365 2.1e-4,0.0118 c 0.0258,-5.8e-4 0.0516,-0.003 0.0769,-0.008 -0.0248,-0.005 -0.0505,-0.006 -0.0771,-0.004 z m 9.35815,0.086 c 0.0163,0.0156 0.0332,0.0307 0.0497,0.0462 0.0328,0.0123 0.066,0.0226 0.0998,0.0317 -0.0498,-0.0261 -0.0994,-0.0523 -0.14944,-0.0779 z" />
      <path
         id="rect4-6"
         style="fill:#ff9955;fill-opacity:1;stroke-width:0.365235"
         transform="rotate(24.196088)"
         d="m 164.64753,53.617646 -1.7e-4,119.463164 c 0.0378,-0.0176 0.0754,-0.0356 0.11322,-0.0531 0.14826,-0.068 0.2964,-0.13641 0.4449,-0.20388 0.14849,-0.0675 0.29747,-0.1341 0.44765,-0.19775 0.41964,-0.16895 0.85299,-0.30029 1.28336,-0.43842 0.38563,-0.12331 0.77618,-0.22933 1.16225,-0.35114 0.26673,-0.0841 0.32349,-0.10603 0.58874,-0.1977 0.0294,-0.0104 0.058,-0.023 0.087,-0.0346 0.027,-0.0383 0.0697,-0.0751 0.13248,-0.10485 0.0232,-0.0115 0.0469,-0.0228 0.0703,-0.0339 0.17179,-0.0809 0.34324,-0.16227 0.51521,-0.24283 0.12675,-0.0611 0.25192,-0.12539 0.3768,-0.19027 0.20942,-0.10583 0.42203,-0.20561 0.6348,-0.3045 0.19994,-0.0955 0.39916,-0.19269 0.59363,-0.29904 0.1965,-0.1066 0.39217,-0.21428 0.59496,-0.30869 0.21161,-0.10057 0.42562,-0.19589 0.63809,-0.29465 0.15245,-0.0714 0.30582,-0.14193 0.45269,-0.22437 0.0427,-0.0254 0.0572,-0.0334 0.098,-0.0605 0.0714,-0.0476 0.13805,-0.10151 0.20795,-0.15122 0.13496,-0.0979 0.27178,-0.19362 0.41711,-0.27581 0.1192,-0.0695 0.24175,-0.13273 0.37048,-0.1829 0.13955,-0.0594 0.27974,-0.11687 0.41819,-0.17884 0.12549,-0.0553 0.25047,-0.11179 0.37754,-0.16341 0.091,-0.037 0.18338,-0.071 0.27376,-0.10941 0.0831,-0.0363 0.16502,-0.0749 0.24603,-0.11565 0.0438,-0.0233 0.0865,-0.0483 0.12497,-0.0799 0.0576,-0.0466 0.11654,-0.0914 0.1787,-0.13185 0.0323,-0.021 0.0655,-0.0408 0.0996,-0.0583 0.0341,-0.0176 0.0692,-0.0333 0.10533,-0.0468 0.0531,-0.0214 0.10662,-0.0414 0.16132,-0.0583 0.0585,-0.017 0.11684,-0.0341 0.17514,-0.0515 0.0629,-0.0181 0.12497,-0.0382 0.18681,-0.0596 l -9.1e-4,-114.259614 z m 0.833,119.825844 c -0.14502,0.0661 -0.28963,0.13302 -0.43453,0.19922 -0.13352,0.062 -0.26647,0.12485 -0.39852,0.18983 l -1.3e-4,3.86667 11.57664,1.3e-4 1.8e-4,-8.63125 c -0.0927,0.0475 -0.18594,0.094 -0.27856,0.1416 -0.099,0.0495 -0.19742,0.10018 -0.29669,0.14917 -0.4541,0.22268 -0.92099,0.41851 -1.38054,0.62939 -0.60643,0.27249 -1.21302,0.54385 -1.82027,0.81452 -0.60206,0.26811 -1.20422,0.53619 -1.81065,0.79432 -0.46065,0.19417 -0.9266,0.37569 -1.39487,0.55085 -0.4229,0.18718 -0.84157,0.38294 -1.26091,0.5779 -0.29366,0.13404 -0.58503,0.27284 -0.87291,0.41886 l -0.10776,0.0552 c -0.32122,0.16394 -0.55734,0.065 -0.61586,-0.10851 -0.15573,0.0532 -0.31437,0.098 -0.46733,0.159 -0.14681,0.0619 -0.29226,0.12703 -0.43729,0.19308 z" />
      <rect
         style="fill:#ffffff;fill-opacity:1;stroke-width:0.264583"
         id="rect32"
         width="12.989228"
         height="3.1879566"
         x="79.133675"
         y="225.3614" />
      <rect
         style="fill:#ffffff;fill-opacity:1;stroke-width:0.264583"
         id="rect33"
         width="15.894565"
         height="9.3377733"
         x="75.561356"
         y="226.0284" />
      <rect
         style="fill:#803300;fill-opacity:1;stroke-width:0.264583"
         id="rect34"
         width="3.3253827"
         height="2.4300876"
         x="87.77092"
         y="130.52127" />
      <rect
         style="fill:#ffffff;fill-opacity:1;stroke-width:0.264583"
         id="rect35"
         width="38.20993"
         height="14.036952"
         x="98.066818"
         y="115.07743" />
      <rect
         style="fill:#ffffff;fill-opacity:1;stroke-width:0.264583"
         id="rect36"
         width="9.7203503"
         height="7.2902622"
         x="132.82347"
         y="119.07428" />
      <rect
         style="fill:#ffffff;fill-opacity:1;stroke-width:0.264583"
         id="rect37"
         width="12.917833"
         height="6.4589167"
         x="125.4053"
         y="120.86488" />
    </g>
    <g
       id="g38"
       transform="matrix(0.75139665,0,0,0.75139665,32.839559,190.36309)">
      <circle
         style="fill:#000000;fill-opacity:1;stroke-width:0.264583"
         id="path37"
         cx="85.554817"
         cy="55.167477"
         r="32.37698" />
      <circle
         style="fill:#ffffff;fill-opacity:1;stroke-width:0.264583"
         id="path38"
         cx="85.37281"
         cy="55.316467"
         r="30.887691" />
    </g>
    <path
       id="path48"
       style="fill:#c87137;fill-opacity:1;stroke-width:0.165541"
       d="m 88.371269,224.52504 a 12.363929,23.563822 32.589999 0 0 1.17246,24.26706 12.363929,23.563822 32.589999 0 0 23.191481,-16.97464 12.363929,23.563822 32.589999 0 0 0.35504,-0.72074 l -24.329361,-7.28207 a 12.363929,23.563822 32.589999 0 0 -0.38968,0.71037 z" />
    <rect
       style="fill:#552200;fill-opacity:1;stroke-width:0.264583"
       id="rect48"
       width="4.3862662"
       height="6.9637632"
       x="207.85956"
       y="124.39719"
       ry="2.1931331"
       transform="rotate(33.489853)" />
    <g
       id="g47"
       transform="matrix(0.45229868,0.21617201,-0.21617201,0.45229868,66.073189,201.05629)">
      <ellipse
         style="fill:#803300;fill-opacity:1;stroke-width:0.264583"
         id="path41-1"
         cx="85.959663"
         cy="17.290306"
         rx="27.754156"
         ry="12.853884" />
      <ellipse
         style="fill:url(#pattern47);fill-opacity:1;stroke-width:0.264583"
         id="path41"
         cx="85.948357"
         cy="17.330362"
         rx="27.754156"
         ry="12.853884" />
    </g>
  </g>
</svg>
